<?xml version="1.0" ?><svg height="512" preserveAspectRatio="xMidYMid" viewBox="0 0 512 512" width="512" xmlns="http://www.w3.org/2000/svg" xmlns:xlink="http://www.w3.org/1999/xlink"><defs><style>
      .cls-1 {
        fill: #3498db;
      }

      .cls-2 {
        fill: #000;
        opacity: 0.3;
      }

      .cls-2, .cls-3 {
        fill-rule: evenodd;
      }

      .cls-3 {
        fill: #fff;
      }
    </style></defs><g><circle class="cls-1" cx="256" cy="256" r="256"/><path class="cls-2" d="M378.310,294.086 L239.189,511.457 C126.304,504.139 33.360,423.655 7.300,316.948 L158.125,206.090 C158.125,206.090 196.523,229.761 244.000,212.000 C266.071,205.675 262.000,262.000 262.000,262.000 L308.000,214.000 C308.000,214.000 341.279,207.769 360.000,220.000 C378.779,232.269 383.000,263.000 383.000,263.000 L370.000,283.000 L378.310,294.086 Z"/><path class="cls-3" d="M383.630,262.610 L316.695,262.610 C316.100,293.068 337.128,294.513 352.191,289.829 C360.060,287.382 363.412,274.455 371.460,273.700 C382.808,272.634 393.035,302.729 347.120,309.992 C301.205,317.254 293.369,272.616 293.369,268.659 C293.369,264.702 286.783,203.131 339.007,203.131 C391.231,203.131 383.630,262.610 383.630,262.610 ZM340.021,220.269 C317.804,219.855 317.709,247.488 317.709,247.488 L362.332,247.488 C362.332,247.488 362.237,220.683 340.021,220.269 ZM265.987,311.000 C231.764,308.546 254.831,235.391 254.831,235.391 C254.831,235.391 252.440,223.817 241.647,220.269 C207.092,208.909 210.208,278.740 210.208,278.740 C210.208,278.740 209.757,263.907 217.307,255.553 C224.858,247.199 232.621,312.210 205.138,307.976 C174.577,303.267 190.969,237.735 196.010,236.399 C192.985,231.722 193.961,229.497 184.854,222.285 C162.606,204.668 141.208,262.577 149.359,281.764 C153.476,256.185 160.020,247.402 161.529,254.545 C168.102,285.661 155.712,313.407 146.316,309.992 C115.267,298.706 127.534,232.200 154.430,209.180 C169.829,196.000 195.184,202.244 205.138,217.245 C244.887,176.924 277.310,230.165 274.100,236.399 C263.904,256.202 267.228,298.318 269.030,276.724 C269.936,265.858 271.857,259.298 273.865,255.972 C275.846,252.689 277.913,252.557 279.171,254.545 C287.948,269.168 280.923,312.071 265.987,311.000 Z"/></g></svg>