<?xml version="1.0" ?><!DOCTYPE svg  PUBLIC '-//W3C//DTD SVG 1.1//EN'  'http://www.w3.org/Graphics/SVG/1.1/DTD/svg11.dtd'><svg enable-background="new 246.6 0 595.3 595.3" id="Layer_1" version="1.1" viewBox="246.6 0 595.3 595.3" xml:space="preserve" xmlns="http://www.w3.org/2000/svg" xmlns:xlink="http://www.w3.org/1999/xlink"><g><g><g><path d="M841.9,298.7C841.9,134.3,708.6,1,544.2,1S246.6,134.3,246.6,298.7s133.2,297.6,297.6,297.6     S841.9,463.1,841.9,298.7z" fill="#615F5F"/></g></g></g><path d="M544.2,596.3c164.4,0,297.6-133.2,297.6-297.6c0-79.3-31-151.1-81.5-204.5L336.9,512.3  C390.5,564.2,463.7,596.3,544.2,596.3z" fill="#4B4A4A"/><g id="Layer_1_1_"/><g><path d="M699.8,285.3c33.5,0.9,66.9,1.9,99.9,7.8c2.6,0.5,5.2,0.1,7.8,0.1c0-0.8,0.1-1.6,0.1-2.3   c-37.6-8.1-75.9-8.7-114.1-9.5c1.3-9.2,2.8-17.7,3.7-26.3c3.7-33.9-0.6-65.8-24.2-92.8c-2-2.2-2.2-6.4-2.2-9.7   c-0.1-12.6,2.1-25.5,0-37.7c-3.4-19.5-4-22.9-25.7-16.2c-14.5,4.7-27.9,13-42,19.5c-2.8,1.3-6.3,2.2-9.2,1.6   c-32.6-6.4-65.3-7-97.7-0.3c-11.7,2.4-20.1,1-29.6-5.6c-13.1-9.1-28-15-44.1-17.3c-6.2-0.9-9.8,0.7-11.9,7.1   c-5.7,18-6.2,36-2.4,54.4c0.6,2.9-0.2,7.1-2,9.4c-10.2,13.1-19.1,27.1-20.3,43.9c-1,14.3-0.6,28.7,0.3,43c0.6,8.8,3,17.6,4.8,26.4   c-8.5,0.3-16.6,0.6-24.8,1.2c-26.6,2.2-53.4,4.5-80,7c-1.9,0.2-3.7,1.6-5.6,2.4c0.2,0.7,0.5,1.4,0.7,2.1c4.4-0.7,9-1.6,13.4-2   c30-2.2,60.1-4,90.1-6.5c7.3-0.6,10.8,1.5,11.5,9.1c-39.1,1.4-77.7,5.8-114.8,18.6c2.3,1,4.5,0.9,6.6,0.5   c34.9-9.1,70.3-14.1,106.3-14.8c2.3,0,5.6,1.5,6.7,3.4c10.6,16.6,24.8,29.4,43.1,36.2c17.7,6.5,36.2,10.7,53.9,15.8   c-6.5,6.6-13.3,14.9-15,26.2c-0.1,1-1.6,2-2.7,2.7c-15.6,9.4-43,5.3-55-8.4c-5.8-6.6-10.9-14-16.9-20.5c-7.7-8.4-16.7-14-28.7-11.5   c-2.2,0.5-4.1,2.1-6,3.3c1.2,2,2,4.7,3.7,5.8c14.4,8.8,23,22.1,29.6,37.3c7,16,19.5,26.6,37.2,28.8c12,1.4,24.2,0.2,37,0.2   c0,13.5-0.2,27.2,0.1,40.9c0.2,7.9-3,13.6-9.1,18.1c-3.1,2.4-6.5,4.8-9.3,7.6c-2.1,2.1-2.6,4.5,1.4,5.9   c17.7,6.6,41.5-9.4,41.5-28.1c0-19.3,0-38.6,0.2-57.9c0-5.8,1.7-11,6.5-15.6c0.3,1.6,0.6,2.2,0.6,2.9c-0.2,27.2-0.3,54.5-0.7,81.7   c-0.1,7.4-2.3,14.3-8.3,19.6c-1.4,1.3-2.6,5.2-1.9,6.2c1.5,1.6,4.5,2.8,6.7,2.6c13.3-1,27.4-13.3,28.8-26.5   c1.9-17.6,2.2-35.3,2.8-53c0.3-12.1,0.1-24.3,0.1-37c2.3,0.1,4.1,0.2,6.4,0.3c0,3.1,0,5.8,0,8.5c0.1,24-0.1,47.9,0.5,71.9   c0.5,18.7,12.6,32.6,30.6,35.8c2.1,0.3,5.3-0.2,6.4-1.6c1-1.4,0.5-4.5-0.2-6.6c-0.7-2-2.8-3.5-3.7-5.5c-2.4-5.1-6.3-10.3-6.4-15.7   c-0.7-27.2-0.3-54.5-0.3-81.9c0-0.3,0.5-0.7,1.2-1.7c5.7,4.8,5.9,11,6,17.2c0.5,19.1,0.9,38.1,0.9,57.2c0,11,4.8,19,14.4,23.4   c5.5,2.6,11.7,3.8,17.8,4.4c3.8,0.3,7.8-1.7,11.7-2.8c-2.3-2.7-4.5-5.5-6.9-8.1c-0.6-0.7-1.4-1.2-2.1-1.6c-7-5-10.5-11.3-10.1-20.3   c0.6-16.9,0.8-33.7,0.3-50.6c-0.6-20.3-0.5-41.3-20.1-54.9c13.5-2.6,26.4-4.5,38.9-7.7c24.2-6,45.1-17.4,57.3-40.5   c2.7-5,5.6-6.3,10.8-5.9c36.3,2.3,72.4,5.1,107.5,15.3c1.3,0.3,2.9,0,4.3,0c0.1-0.9,0.1-1.7,0.2-2.7c-38-12.1-77.5-14.8-117.1-16.9   C689.5,287.4,693.1,285.1,699.8,285.3z M659.2,281.2c-3.4,38.7-30.5,53.9-62.9,57.3c-16.3,1.6-32.8,1.6-57,2.7   c-14.1-1.3-36-2.4-57.7-5.5c-9.1-1.3-18.3-5.5-26.4-10.1c-25.6-14.9-36.2-46.9-25.7-74.5c9.1-23.7,32.2-36.9,59.1-34.4   c36.5,3.3,72.9,3,109.5,0.2C642.5,213.5,662.5,243.3,659.2,281.2z" fill="#FFFFFF"/><ellipse cx="480" cy="273.3" fill="#FFFFFF" rx="16.7" ry="24.1"/><ellipse cx="611.3" cy="273.3" fill="#FFFFFF" rx="16.7" ry="24.1"/></g><path d="M699.8,285.3c33.5,0.9,66.9,1.9,99.9,7.8c2.6,0.5,5.2,0.1,7.8,0.1c0-0.8,0.1-1.6,0.1-2.3  c-37.6-8.1-75.9-8.7-114.1-9.5c1.3-9.2,2.8-17.7,3.7-26.3c3.3-29.8,0.3-57.9-16.3-82.5l-50,49.4c21.2,9.9,30.6,32.7,28.3,59.4  c-3.4,38.7-30.5,53.9-62.9,57.3c-16.3,1.6-32.8,1.6-57,2.7c-7.3-0.7-16.6-1.3-27-2.1l-14.9,14.6c0.3,0.1,0.7,0.2,1,0.2  c-6.5,6.6-13.3,14.9-15,26.2c-0.1,1-1.6,2-2.7,2.7c-5,3-11.3,4.7-17.8,5L435,415.6c2.9,0.9,6,1.6,9.4,2.1c12,1.4,24.2,0.2,37,0.2  c0,13.5-0.2,27.2,0.1,40.9c0.2,7.9-3,13.6-9.1,18.1c-3.1,2.4-6.5,4.8-9.3,7.6c-2.1,2.1-2.6,4.5,1.4,5.9c17.7,6.6,41.5-9.4,41.5-28.1  c0-19.3,0-38.6,0.2-57.9c0-5.8,1.7-11,6.5-15.6c0.3,1.6,0.6,2.2,0.6,2.9c-0.2,27.2-0.3,54.5-0.7,81.7c-0.1,7.4-2.3,14.3-8.3,19.6  c-1.4,1.3-2.6,5.2-1.9,6.2c1.5,1.6,4.5,2.8,6.7,2.6c13.3-1,27.4-13.3,28.8-26.5c1.9-17.6,2.2-35.3,2.8-53c0.3-12.1,0.1-24.3,0.1-37  c2.3,0.1,4.1,0.2,6.4,0.3c0,3.1,0,5.8,0,8.5c0.1,24-0.1,47.9,0.5,71.9c0.5,18.7,12.6,32.6,30.6,35.8c2.1,0.3,5.3-0.2,6.4-1.6  c1-1.4,0.5-4.5-0.2-6.6c-0.7-2-2.8-3.5-3.7-5.5c-2.4-5.1-6.3-10.3-6.4-15.7c-0.7-27.2-0.3-54.5-0.3-81.9c0-0.3,0.5-0.7,1.2-1.7  c5.7,4.8,5.9,11,6,17.2c0.5,19.1,0.9,38.1,0.9,57.2c0,11,4.8,19,14.4,23.4c5.5,2.6,11.7,3.8,17.8,4.4c3.8,0.3,7.8-1.7,11.7-2.8  c-2.3-2.7-4.5-5.5-6.9-8.1c-0.6-0.7-1.4-1.2-2.1-1.6c-7-5-10.5-11.3-10.1-20.3c0.6-16.9,0.8-33.7,0.3-50.6  c-0.6-20.3-0.5-41.3-20.1-54.9c13.5-2.6,26.4-4.5,38.9-7.7c24.2-6,45.1-17.4,57.3-40.5c2.7-5,5.6-6.3,10.8-5.9  c36.3,2.3,72.4,5.1,107.5,15.3c1.3,0.3,2.9,0,4.3,0c0.1-0.9,0.1-1.7,0.2-2.7c-38-12.1-77.5-14.8-117.1-16.9  C689.5,287.4,693.1,285.1,699.8,285.3z M611.3,297.3c9.2,0,16.7-10.7,16.7-24.1s-7.4-24.1-16.7-24.1c-9.2,0-16.7,10.7-16.7,24.1  S602,297.3,611.3,297.3z" fill="#F1F2F2"/></svg>